<svg viewbox="0 0 349.234 64.8" xmlns="http://www.w3.org/2000/svg" width="349.234" height="64.8">
    <path fill="#fff" d="M13.875 15.001c6.593 0 10.845 4.99 10.845 11.15 0 6.238-4.252 11.05-10.845 11.05H5.066v13.798H0V15h13.875v.001zm-.764 17.822c4.226 0 6.594-2.724 6.594-6.747 0-3.87-2.368-6.72-6.594-6.72H5.066v13.467h8.045zM55.728 51l-3.004-8.401h-16.09L33.63 51h-5.27l13.264-35.999h6.11L60.998 51h-5.27zM38.213 38.169h12.932L44.68 20.017l-6.467 18.152zM87.296 51 77.98 34.809h-5.041V51h-5.066V15.001H79.99c7.535 0 10.972 4.608 10.972 10.26 0 5.015-2.953 8.503-7.892 9.343l10.158 16.395h-5.932V51zM72.938 19.38v11.56h6.364c4.685 0 6.798-2.342 6.798-5.754 0-3.36-2.113-5.804-6.798-5.804h-6.364v-.002zm46.843-4.379v4.557h-9.114V51h-5.015V19.558h-9.14V15h23.269v.001zm31.21 0-11.837 18.84v17.158h-5.117V33.865l-11.864-18.864h5.754l8.655 14.282 8.682-14.282h5.728-.001z"/>
    <g fill="currentColor">
        <path xmlns="http://www.w3.org/2000/svg" d="M196.752 41.147c1.32-4.464 6.168-18.862-8.014-20.899-14.482-2.08-17.145 12.681-17.145 12.681s-3.424 9.207 6.188 20.392c11.554 13.444 26.377 11.363 26.377 11.363-13.29-4.261-8.724-19.073-7.406-23.537z"/>
        <path xmlns="http://www.w3.org/2000/svg" d="M231.666 18.6c2.682 13.697-12.494 16.847-17.04 17.846s-19.496 3.702-14.436 17.106c5.168 13.688 19.382 8.896 19.382 8.896s9.715-1.445 14.872-15.262c6.199-16.607-2.778-28.585-2.778-28.585V18.6z"/>
        <path xmlns="http://www.w3.org/2000/svg" d="M200.663 22.27c2.456 3.953 9.983 17.15 20.937 7.915 11.185-9.43 1.934-21.237 1.934-21.237S218.936.268 204.19.006c-17.724-.314-26.028 12.14-26.028 12.14 12.02-7.09 20.045 6.17 22.501 10.124z"/>
    </g>
    <path fill="#fff" d="M270.875 15.001c6.593 0 10.845 4.99 10.845 11.15 0 6.238-4.252 11.05-10.845 11.05h-8.809v13.798H257V15h13.875v.001zm-.764 17.822c4.226 0 6.594-2.724 6.594-6.747 0-3.87-2.368-6.72-6.594-6.72h-8.045v13.467h8.045zM312.728 51l-3.004-8.401h-16.09L290.63 51h-5.27l13.264-35.999h6.11L317.998 51h-5.27zm-17.515-12.831h12.932l-6.466-18.152-6.466 18.152zm54.021-23.168-11.838 18.84v17.158h-5.117V33.865l-11.863-18.864h5.753l8.656 14.282 8.681-14.282h5.728z"/>
</svg>